<?xml version="1.0" encoding="UTF-8"?>
<svg width="200px" height="200px" viewBox="0 0 200 200" version="1.1" xmlns="http://www.w3.org/2000/svg" xmlns:xlink="http://www.w3.org/1999/xlink">
    <!-- Generator: Sketch 52.5 (67469) - http://www.bohemiancoding.com/sketch -->
    <title>icon</title>
    <desc>Created with Sketch.</desc>
    <defs>
        <linearGradient x1="12.7234946%" y1="80.6171539%" x2="94.4958323%" y2="20.1155003%" id="linearGradient-1">
            <stop stop-color="#30336B" offset="0%"></stop>
            <stop stop-color="#E056FD" offset="100%"></stop>
        </linearGradient>
        <linearGradient x1="10.85765%" y1="81.9976535%" x2="94.4958323%" y2="20.1155003%" id="linearGradient-2">
            <stop stop-color="#3867D6" offset="0%"></stop>
            <stop stop-color="#20BF6B" offset="100%"></stop>
        </linearGradient>
    </defs>
    <g id="icon" stroke="none" stroke-width="1" fill="none" fill-rule="evenodd" transform="translate(0.000000, 0.000000)">
        <g id="Group-3">
            <g id="Group-2">
                <path d="M-1.13686838e-13,100 C-1.13686838e-13,0 0.397614314,1.22221211e-14 100.198807,0 C200,0 200,0 200,100 C200,200 200,200 100.198807,200 C0.397614314,200 -1.13686838e-13,200 -1.13686838e-13,100 Z" id="Combined-Shape" fill="url(#linearGradient-1)"></path>
                <g id="language" transform="translate(37.000000, 50.000000)" fill="#FFFFFF">
                    <g id="Group" transform="translate(59.000000, 34.000000)">
                        <path d="M6.53658537,0 L60.4634146,0 C64.073471,-6.63156605e-16 67,2.92652895 67,6.53658537 L67,60.4634146 C67,64.073471 64.073471,67 60.4634146,67 L6.53658537,67 C2.92652895,67 4.42104403e-16,64.073471 0,60.4634146 L0,6.53658537 C-4.42104403e-16,2.92652895 2.92652895,6.63156605e-16 6.53658537,0 Z" id="Rectangle" fill-opacity="0.21"></path>
                        <path d="M53.5270063,25.1249941 C53.5270063,26.5126092 52.3959955,27.6374935 51.000823,27.6374935 L48.6009488,27.6374935 C47.1483934,32.5787423 44.0327673,37.5597724 39.6119464,42.268615 C41.3777355,43.617064 43.2116064,44.8749516 45.1063952,46.0373641 C46.2683989,46.7502521 46.6506436,48.2524036 45.9695078,49.4292383 L44.3064371,52.3374564 C43.6168278,53.5433186 42.0750773,53.9650971 40.8624072,53.2796437 C40.8378341,53.2669305 40.8139434,53.2529533 40.790832,53.2377687 C38.2004901,51.6560488 35.711602,49.9155725 33.3385912,48.0264262 C30.9641839,49.9137216 28.4754135,51.6541156 25.8863503,53.2377687 C25.3141464,53.5851225 24.6265904,53.6920296 23.9750957,53.534947 C23.3236009,53.3778645 22.761597,52.9696746 22.4128482,52.4002689 L22.3707452,52.3290814 L20.7076745,49.4124883 C20.0302936,48.2302738 20.4222629,46.7265819 21.5918387,46.0206141 C23.4923709,44.8669769 25.3267046,43.6087718 27.0862874,42.251865 C25.4853878,40.5662478 24.0079971,38.7686966 22.6654666,36.8730226 C21.8733306,35.731087 22.1617093,34.166718 23.3096433,33.3785546 L23.4443731,33.2927109 L24.8127224,32.4782423 L26.3494839,31.5779301 C27.4877275,30.9091621 28.9512685,31.2184799 29.7177284,32.2898049 C30.8327056,33.8324396 32.0567944,35.294089 33.3806942,36.6636476 C36.2226505,33.6905233 38.3909578,30.6148053 39.6961526,27.6207435 L15.6342563,27.6207435 C14.2390838,27.6207435 13.1080729,26.4958592 13.1080729,25.1082441 L13.1080729,21.7749949 C13.1080729,20.3873798 14.2390838,19.2624955 15.6342563,19.2624955 L29.1072341,19.2624955 L29.1072341,15.9124962 C29.1072341,14.5248811 30.2382449,13.3999968 31.6334174,13.3999968 L35.0016619,13.3999968 C36.3968344,13.3999968 37.5278452,14.5248811 37.5278452,15.9124962 L37.5278452,19.2624955 L51.000823,19.2624955 C52.3959955,19.2624955 53.5270063,20.3873798 53.5270063,21.7749949 L53.5270063,25.1249941 Z" id="Path" fill-rule="nonzero"></path>
                    </g>
                    <path d="M6.4969697,0 L60.5030303,0 C64.0912076,-6.63156605e-16 67,2.92652895 67,6.53658537 L67,60.4634146 C67,64.073471 64.0912076,67 60.5030303,67 L6.4969697,67 C2.90879241,67 -1.13247413e-13,64.073471 -1.13686838e-13,60.4634146 L-1.13686838e-13,6.53658537 C-1.14126263e-13,2.92652895 2.90879241,6.63156605e-16 6.4969697,0 Z M15.6072762,50.2897694 L15.5968184,50.2897694 C15.3468132,51.0576751 15.4785224,51.8989461 15.9512226,52.5534688 C16.4239228,53.2079915 17.1806674,53.5969149 17.9874776,53.5999874 L22.7980778,53.5999874 C23.9131696,53.5939732 24.8931581,52.8586394 25.2117442,51.788894 L27.1192518,45.1684581 L39.7397569,45.1684581 L41.7204693,51.8098315 C42.0398977,52.875109 43.0209758,53.6033811 44.1320441,53.5999874 L48.9259118,53.5999874 C50.3088528,53.6092857 51.4387242,52.4969604 51.4525227,51.1126129 C51.4545238,50.8325689 51.4085403,50.554255 51.316571,50.2897694 L39.2607885,15.0854652 C38.8948383,14.0781378 37.9408679,13.4055673 36.8701293,13.3999968 L30.0558095,13.3999968 C28.980521,13.3911523 28.0190751,14.0689932 27.6651503,15.0854652 L15.6072762,50.2897694 Z M35.1592289,29.3543681 L37.4390351,37.2059287 L29.4701712,37.2059287 L31.7918087,29.3543681 C32.5238566,26.8209312 33.4232297,22.4031197 33.4232297,22.4031197 L33.5278079,22.4031197 C33.5278079,22.4031197 34.427181,26.8209312 35.1592289,29.3543681 Z" id="Combined-Shape" fill-rule="nonzero"></path>
                </g>
            </g>
            <g id="icon">
                <path d="M-1.13686838e-13,100 C-1.13686838e-13,0 0.397614314,1.22221213e-14 100.198807,0 C200,0 200,0 200,100 C200,200 200,200 100.198807,200 C0.397614314,200 -1.13686838e-13,200 -1.13686838e-13,100 Z" id="Combined-Shape" fill="url(#linearGradient-2)"></path>
                <path d="M156.789407,97.4823211 C153.156808,90.664485 146.730113,87.122614 141.978431,85.3520502 C136.872409,83.4492771 131.171337,82.6751207 126.425635,83.2004853 C126.278866,82.1643906 126.089984,81.1357373 125.84703,80.11775 C124.372113,73.9373969 121.120516,68.3426834 116.443339,63.9383506 C109.72485,57.6111531 100.889546,54.4912108 92.72056,55.1845038 C91.8145284,54.0881332 89.4400576,51.4707354 85.8824628,49.3856474 C81.7948548,46.9897557 77.4630468,46.0625539 73.102084,46.6090025 C71.6819868,45.0619301 67.0446796,40.5720207 60.6147452,40.0146578 C59.3182428,39.9020442 58.0329536,39.9603354 56.7616188,40.177377 C56.0325076,39.6463072 54.4125648,38.5695326 52.3465836,37.8224133 C48.4421252,36.4102785 44.834694,36.8225335 41.9137636,39.0140339 C38.4692984,41.5989377 37.2418199,45.4731928 38.4568392,49.9229186 C39.0553783,52.1141706 40.1026972,53.9460022 40.710456,54.8920555 C39.3925236,59.085796 39.6651304,63.1297156 40.3994748,66.3632638 C41.6812752,72.0068423 44.5438968,76.2095123 45.126488,77.0243487 C44.2640636,82.0748456 44.6388356,86.6808413 45.4389644,90.4536446 C47.1952104,98.7369457 51.2135456,104.567056 52.1606924,105.8574 C51.8883348,114.427939 53.8543936,124.440628 60.5307704,134.989099 C74.0435,156.338058 92.2939576,164.000744 109.18163,164 C116.338682,163.999752 123.250039,162.620359 129.452219,160.325671 C131.584234,160.988702 133.687842,161.320094 135.73987,161.319846 C141.606649,161.319598 147.050563,158.6387 151.511199,153.442103 C156.888831,147.177165 160.591949,137.49562 161.670665,126.880176 C162.784765,115.920938 161.051194,105.480615 156.789407,97.4823211 Z M42.0632736,48.9470993 C41.2417152,45.9392744 41.9287148,43.6617015 44.1636424,41.9846517 C46.0302772,40.5841751 48.3245108,40.349274 50.9828016,41.2868939 C51.3747672,41.4250564 51.7467984,41.5803342 52.0956556,41.741317 C50.5574452,42.5191942 49.0461464,43.5461112 47.5684876,44.8292613 C45.4230164,46.6923469 43.8227592,48.637784 42.6466128,50.5993441 C42.4280784,50.0893584 42.2232496,49.5324914 42.0632736,48.9470993 Z M148.670008,151.025871 C145.051862,155.24144 138.877839,159.630146 130.015374,156.598508 C127.687002,155.801779 125.64569,154.698712 123.9485,153.319319 C123.14887,152.669187 120.749413,151.271377 120.096552,152.067114 C119.443691,152.863099 120.785364,155.5515 121.584745,156.201136 C122.434461,156.891701 123.354945,157.519261 124.333738,158.089026 C117.666831,160.006434 107.656626,161.552515 96.56646,158.68434 C83.3781676,155.273438 72.317654,146.634189 63.6921628,133.006455 C53.353036,116.67153 55.1571256,101.754693 58.4912024,92.1180439 C62.348814,80.9678094 70.5197944,70.4223144 80.3488424,63.9085851 C80.623014,63.7268481 83.3711216,61.8547295 83.751724,60.8657717 C83.9100008,60.4545062 82.1665448,60.6859489 82.0413792,60.4751105 C81.770422,60.0186889 80.7581892,59.8377962 79.9034484,60.0134228 C79.127134,60.1729348 78.501922,60.6632443 78.2778772,60.8117108 C67.7907352,67.7620043 59.073046,79.0124503 54.9577788,90.9065798 C54.0607176,93.499917 53.265822,96.4464743 52.7497624,99.6812626 C51.4310828,97.1769743 49.9245188,93.6772713 49.065832,89.5475268 C46.7506668,78.4096947 50.0207036,68.1248976 58.7852392,58.9783912 C59.9571496,57.7552685 61.1475,56.6427753 62.323148,55.672165 C63.1175456,55.0160794 64.7413508,52.6626037 64.0827588,51.8718282 C63.9115364,51.6663318 68.3595324,49.0193136 69.2137932,48.0805367 C69.761606,47.4785268 66.9824056,48.335274 66.648276,48.4986291 C65.7931036,48.9167215 61.0896552,51.8718282 59.936966,52.808704 C58.7842764,53.7455798 57.3524332,55.0833004 56.0808492,56.4103549 C51.0672748,61.6424222 48.0705924,66.916906 46.4082884,71.9098559 C45.5476084,70.2397515 44.5865072,67.9884717 44.0188668,65.431101 C42.4652068,58.4304541 44.4858368,52.4420898 50.0244412,47.6326952 C53.3522884,44.7429408 56.7957572,43.4263042 60.2633964,43.7177601 C63.9313792,44.0270753 66.9636948,46.0690033 68.7854764,47.6309587 C68.0693224,47.8809906 68.6148852,47.6116112 66.6419988,48.4986291 C64.6691124,49.3856474 64.6691124,50.3547182 64.0827588,51.0637584 C63.5481612,51.7102131 63.8751464,51.4276213 64.0827588,51.8718282 C64.1996668,52.121898 60.4651396,55.0884874 59.8068964,56.1778523 C59.2714144,57.0640531 61.7090344,56.2100184 62.323148,55.672165 C63.6921628,54.4731544 67.7381012,52.0938665 68.2180852,51.8718282 C73.5698016,49.393833 78.8390388,49.6150913 83.8795248,52.5289062 C85.7670908,53.6198195 87.2821272,54.9064425 88.3466396,55.9465058 C87.2454972,56.2419306 86.1657848,56.6102813 85.1189644,57.062472 C84.9054124,57.1547438 79.9034484,59.5872483 78.2778772,60.8117108 C77.5102772,61.3899063 74.1724644,64.5430439 75.2,64.2751678 C76.3485096,63.9757541 81.9315408,60.2255264 82.0413792,60.4751105 C82.2521716,60.9540898 76.4827588,66.4656318 80.3488424,63.9085851 C84.2149256,61.3515379 86.4027104,60.5634027 86.6070888,60.4751105 C95.1040012,56.8047502 106.0621,59.2820014 113.875253,66.6400851 C118.022416,70.5455943 120.904723,75.5030728 122.211192,80.9769869 C123.701061,87.2205925 123.150614,93.9042346 120.574804,100.842125 C112.425752,122.791856 110.933142,139.128517 116.138338,149.398183 C116.467012,150.046579 118.797076,154.313246 121.584745,156.201136 C124.372414,158.089026 119.826686,152.202548 120.096552,152.067114 C120.483715,151.872591 123.915264,155.254665 124.8,155.47651 C125.063735,155.542641 127.365517,155.902684 123.9485,153.345638 C120.531484,150.788591 119.686466,148.138738 119.475156,147.721878 C116.895109,142.631941 116.203624,135.592847 117.41964,126.800305 C118.403168,119.687044 120.644326,111.387372 124.080568,102.131477 C126.012738,96.9271905 126.901825,91.8305567 126.747829,86.9060682 C135.042404,85.9453799 148.313177,89.5128003 153.487724,99.2248553 C161.434937,114.140204 159.138461,138.830116 148.670008,151.025871 Z" id="Shape" stroke="#FFFFFF" stroke-width="7" fill="#FFFFFF" fill-rule="nonzero"></path>
            </g>
        </g>
    </g>
</svg>