<svg fill="none" height="200" viewBox="0 0 200 200" width="200" xmlns="http://www.w3.org/2000/svg" xmlns:xlink="http://www.w3.org/1999/xlink"><linearGradient id="a" gradientUnits="userSpaceOnUse" x1=".000008" x2="200" y1="200" y2="-.000004"><stop offset="0" stop-color="#0a341e"/><stop offset="1" stop-color="#20bf6b"/></linearGradient><path clip-rule="evenodd" d="m0 100c0-100 .397614-100 100.199-100 99.801 0 99.801 0 99.801 100s0 100-99.801 100c-99.801386 0-100.199 0-100.199-100z" fill="url(#a)" fill-rule="evenodd"/><path d="m85.0361 54.2182c23.5379 2.2446 41.9749 23.2645 41.9749 47.8538 0 3.246 2.641 5.886 5.886 5.886h.22c1.043-3.677 1.602-7.555 1.602-11.562v-3.8541c0-5.705 3.118-10.6925 7.737-13.3582l-7.491-19.975c-.748-1.9931.262-4.2146 2.255-4.962 1.993-.748 4.215.2623 4.962 2.2554l7.736 20.6289c.073-.0011.145-.0054.218-.0054s.145.0046.217.0054l7.736-20.6287c.748-1.993 2.97-3.0028 4.962-2.2554 1.993.7472 3.003 2.969 2.256 4.962l-7.491 19.975c4.618 2.6655 7.736 7.653 7.736 13.3583v11.5618c0 23.377-19.018 42.395-42.395 42.395-2.599 0-43.04 0-47.1821 0-.073 0-.1439-.007-.2159-.011-23.0554-.476-41.759-19.284-41.759-42.384v-3.854c0-27.1419 23.5593-48.6531 51.0361-46.0318zm38.1209 84.5728c19.126 0 34.687-15.561 34.687-34.687v-11.5621c0-4.2502-3.458-7.7081-7.708-7.7081-4.251 0-7.709 3.4579-7.709 7.7081v3.8541c0 17.828-9.361 33.512-23.425 42.395zm-81.4489-34.687c0 18.798 15.4018 34.356 34.3333 34.682 15.3493.26 27.8456-12.991 27.8456-27.98v-5.392c0-10.7986-8.2925-20.0183-18.485-20.5525-11.1676-.5856-20.3124 8.283-20.3124 19.2415v3.855c0 4.25 3.4579 7.708 7.7082 7.708s7.7082-3.458 7.7082-7.708v-3.854c0-2.129 1.7256-3.854 3.8541-3.854s3.8541 1.725 3.8541 3.854v3.854c0 8.501-6.9158 15.416-15.4164 15.416s-15.4164-6.915-15.4164-15.416v-3.855c0-15.4193 12.8755-27.7536 28.424-26.9391 14.6486.7677 25.7896 13.7632 25.7896 28.2501v5.392c0 10.192-4.575 20.454-12.9794 27.517 13.8434-2.068 25.5204-10.854 31.5984-22.924-6.215-1.249-10.911-6.749-10.911-13.327 0-20.6596-15.373-38.3093-34.9987-40.1809-23.4179-2.2312-42.5962 16.2324-42.5962 38.3589z" fill="#fff"/></svg>