<svg width="200" height="200" viewBox="0 0 200 200" fill="none" xmlns="http://www.w3.org/2000/svg">
<g id="icon">
<path id="Combined-Shape" fill-rule="evenodd" clip-rule="evenodd" d="M0 100C0 0 0.397614 0 100.199 0C200 0 200 0 200 100C200 200 200 200 100.199 200C0.397614 200 0 200 0 100Z" fill="url(#paint0_linear_0:2)"/>
<path id="Vector" d="M85.0361 54.2182C108.574 56.4628 127.011 77.4827 127.011 102.072C127.011 105.318 129.652 107.958 132.897 107.958H133.117C134.16 104.281 134.719 100.403 134.719 96.396V92.5419C134.719 86.8369 137.837 81.8494 142.456 79.1837L134.965 59.2087C134.217 57.2156 135.227 54.9941 137.22 54.2467C139.213 53.4987 141.435 54.509 142.182 56.5021L149.918 77.131C149.991 77.1299 150.063 77.1256 150.136 77.1256C150.209 77.1256 150.281 77.1302 150.353 77.131L158.089 56.5023C158.837 54.5093 161.059 53.4995 163.051 54.2469C165.044 54.9941 166.054 57.2159 165.307 59.2089L157.816 79.1839C162.434 81.8494 165.552 86.8369 165.552 92.5422V104.104C165.552 127.481 146.534 146.499 123.157 146.499C120.558 146.499 80.117 146.499 75.9749 146.499C75.9019 146.499 75.831 146.492 75.759 146.488C52.7036 146.012 34 127.204 34 104.104V100.25C34 73.1081 57.5593 51.5969 85.0361 54.2182ZM123.157 138.791C142.283 138.791 157.844 123.23 157.844 104.104V92.5419C157.844 88.2917 154.386 84.8338 150.136 84.8338C145.885 84.8338 142.427 88.2917 142.427 92.5419V96.396C142.427 114.224 133.066 129.908 119.002 138.791H123.157ZM41.7081 104.104C41.7081 122.902 57.1099 138.46 76.0414 138.786C91.3907 139.046 103.887 125.795 103.887 110.806V105.414C103.887 94.6154 95.5945 85.3957 85.402 84.8615C74.2344 84.2759 65.0896 93.1445 65.0896 104.103V107.958C65.0896 112.208 68.5475 115.666 72.7978 115.666C77.0481 115.666 80.506 112.208 80.506 107.958V104.104C80.506 101.975 82.2316 100.25 84.3601 100.25C86.4886 100.25 88.2142 101.975 88.2142 104.104V107.958C88.2142 116.459 81.2984 123.374 72.7978 123.374C64.2972 123.374 57.3814 116.459 57.3814 107.958V104.103C57.3814 88.6837 70.2569 76.3494 85.8054 77.1639C100.454 77.9316 111.595 90.9271 111.595 105.414V110.806C111.595 120.998 107.02 131.26 98.6156 138.323C112.459 136.255 124.136 127.469 130.214 115.399C123.999 114.15 119.303 108.65 119.303 102.072C119.303 81.4124 103.93 63.7627 84.3043 61.8911C60.8864 59.6599 41.7081 78.1235 41.7081 100.25V104.104Z" fill="white"/>
</g>
<defs>
<linearGradient id="paint0_linear_0:2" x1="8.14348e-06" y1="200" x2="200" y2="-3.77744e-06" gradientUnits="userSpaceOnUse">
<stop stop-color="#0A341E"/>
<stop offset="1" stop-color="#20BF6B"/>
</linearGradient>
</defs>
</svg>
