<svg height="486" viewBox="0 0 503 486" width="503" xmlns="http://www.w3.org/2000/svg"><path d="m393.973517 235.443922c-9.081497-17.071432-25.148234-25.940054-37.02744-30.373434-12.765054-4.764424-27.017734-6.702863-38.88199-5.387383-.366923-2.594316-.839126-5.169999-1.446511-7.718975-3.687294-15.475215-11.816287-29.484025-23.509228-40.512197-16.796222-15.842904-38.884482-23.655043-59.306948-21.919081-2.265079-2.745243-8.201256-9.299042-17.095243-14.519971-10.21902-5.999162-21.04854-8.320817-31.950947-6.952544-3.550243-3.873772-15.143511-15.1162221-31.218347-16.5118237-3.241256-.2819774-6.454479-.1360199-9.632816.4074386-1.822778-1.3297655-5.872635-4.0259411-11.037588-5.8966808-9.761146-3.5358967-18.779724-2.503636-26.08205 2.9837429-8.611163 6.4724363-11.6798593 16.173327-8.642311 27.31516 1.4963477 5.486757 4.114645 10.073548 5.634042 12.442406-3.294831 10.500862-2.613314 20.626582-.777453 28.723183 3.204501 14.131165 10.361055 24.654386 11.817533 26.694685-2.156061 12.646126-1.219131 24.179249.781191 33.626111 4.390615 20.740864 14.436453 35.339093 16.80432 38.570032-.680894 21.460092 4.234253 46.531233 20.925195 72.943941 33.781824 53.456449 79.407968 72.643331 121.627149 72.641468 17.89263-.000621 35.171022-3.454533 50.676473-9.200288 5.330038 1.660188 10.589058 2.489972 15.719126 2.489351 14.666948-.000621 28.276734-6.713421 39.428324-19.725372 13.44408-15.68701 22.701874-39.928989 25.398664-66.509392 2.78525-27.441242-1.548676-53.583152-12.203145-73.610377zm-286.815333-121.529138c-2.053896-7.531404-.336397-13.234303 5.250922-17.4335302 4.666587-3.5067052 10.402171-4.0948827 17.047898-1.7471416.979914.3459502 1.909992.734756 2.782135 1.137847-3.845526 1.9477555-7.623773 4.5190908-11.31792 7.7320178-5.363678 4.665049-9.364321 9.536301-12.304687 14.447924-.546336-1.276972-1.058408-2.671332-1.458348-4.137117zm266.516835 255.598815c-9.045365 10.555518-24.480422 21.544561-46.636584 13.953532-5.820929-1.994959-10.924209-4.756971-15.167184-8.210883-1.999075-1.627891-7.997719-5.127917-9.629872-3.135443-1.632152 1.993096 1.72203 8.724682 3.720483 10.351331 2.12429 1.72913 4.425501 3.300502 6.872484 4.727158-16.667269 4.801068-41.692781 8.672357-69.418196 1.490629-32.970731-8.540684-60.622015-30.17282-82.185743-64.295807-25.847817-40.901624-21.337593-78.252445-13.002401-102.382006 9.644029-27.919485 30.07148-54.32474 54.6441-70.634708.685429-.455058 7.555698-5.142725 8.507204-7.619013.395692-1.029783-3.962948-.450265-4.275862-.978191-.677393-1.142851-3.207975-1.595795-5.344827-1.156037-1.940786.399408-3.503816 1.627112-4.063928 1.998863-26.217855 17.403097-48.012078 45.573505-58.300246 75.355656-2.242653 6.493553-4.229892 13.871547-5.520041 21.971253-3.296699-6.27058-7.063109-15.033616-9.209826-25.374236-5.787913-27.88843 2.387179-53.640914 24.298518-76.54319 2.929776-3.062622 5.905652-5.848235 8.844772-8.278582 1.985994-1.642797 6.045507-7.535752 4.399027-9.515804-.428056-.51455 10.691934-7.142517 12.827586-9.493155 1.369532-1.507395-5.578469.637846-6.413793 1.046877-2.137931 1.046877-13.896552 8.446278-16.778275 10.792156-2.881724 2.345878-6.461332 5.695446-9.640292 9.018307-12.533936 13.100767-20.025642 26.307742-24.181402 38.809774-2.1517-4.181836-4.554453-9.818899-5.973554-16.222394-3.88415-17.529179 1.167425-32.523666 15.013936-44.566087 8.319618-7.235763 16.92829-10.532538 25.597388-9.802751 9.169957.774506 16.750746 5.887365 21.3052 9.798403-1.790385.626064-.426478-.048445-5.358694 2.172592-4.932216 2.221038-4.932216 4.64753-6.3981 6.422922-1.336494 1.618682-.519031.91109 0 2.023356.29227.626159-9.044048 8.054312-10.689656 10.782013-1.338705 2.218991 4.755345.080542 6.290629-1.266209 3.422537-3.002247 13.537383-8.959834 14.737343-9.515804 13.379291-6.204744 26.552384-5.650727 39.153599 1.645282 4.718915 2.731578 8.506506 5.953201 11.167787 8.557454-2.752856.739725-5.452137 1.662052-8.069188 2.794309-.53388.231043-13.03879 6.321881-17.102718 9.387858-1.919 1.447765-10.263532 9.343023-7.694693 8.672278 2.871274-.749713 16.828852-10.140047 17.103448-9.515104.526981 1.199334-13.896551 14.999888-4.231342 8.597204 9.665208-6.402685 15.13467-8.376126 15.645616-8.597204 21.242281-9.190351 48.637528-2.98747 68.17041 15.436708 10.367907 9.779149 17.573675 22.192363 20.839849 35.898699 3.724672 15.633595 2.348555 32.369014-4.090972 49.741055-20.37263 54.960742-24.104155 95.866714-11.091163 121.58131.821683 1.623544 6.646843 12.307008 13.616016 17.034166 6.969172 4.727158-4.395147-10.012212-3.720483-10.351331.967909-.487074 9.546782 7.981426 11.758621 8.536913.659337.165588 6.413793 1.067114-2.128749-5.33557-8.542541-6.402685-10.655085-13.037748-11.183361-14.081541-6.450118-12.74488-8.178829-30.370328-5.138789-52.386301 2.45882-17.811156 8.061713-38.593012 16.652319-61.769191 4.830424-13.031205 7.053142-25.792855 6.668153-38.123464 20.736438-2.405503 53.913369 6.527093 66.849737 30.845467 19.868033 37.347094 14.126842 99.169078-12.044291 129.706481z" fill="#fff" stroke="#fff" stroke-width="7"/></svg>