<svg width="207" height="200" viewBox="0 0 207 200" fill="none" xmlns="http://www.w3.org/2000/svg">
<g id="icon-mask-dark">
<path id="Vector" d="M80.3059 27.3433C117.342 30.8752 146.355 63.9503 146.354 102.642C146.354 107.749 150.509 111.904 155.616 111.904H155.961C157.603 106.118 158.483 100.015 158.483 93.7106V87.6461C158.483 78.6691 163.388 70.8213 170.656 66.6268L158.869 35.1959C157.693 32.0598 159.282 28.5642 162.418 27.3881C165.554 26.2112 169.05 27.8009 170.226 30.9371L182.398 63.3968C182.513 63.3952 182.626 63.3883 182.741 63.3883C182.856 63.3883 182.969 63.3956 183.083 63.3968L195.255 30.9375C196.432 27.8013 199.928 26.2125 203.063 27.3885C206.199 28.5642 207.788 32.0602 206.612 35.1963L194.825 66.6272C202.093 70.8213 206.998 78.6691 206.998 87.6465V105.84C206.998 142.623 177.073 172.548 140.29 172.548C136.199 172.548 72.5656 172.548 66.0479 172.548C65.9331 172.548 65.8215 172.538 65.7083 172.531C29.4304 171.782 -7.15251e-06 142.188 -7.15251e-06 105.84V99.7754C-7.15251e-06 57.0668 37.0708 23.2186 80.3059 27.3433ZM140.29 160.419C170.385 160.419 194.869 135.935 194.869 105.839V87.6461C194.869 80.9583 189.428 75.5172 182.74 75.5172C176.053 75.5172 170.612 80.9583 170.612 87.6461V93.7106C170.612 121.764 155.881 146.443 133.751 160.419H140.29ZM12.1289 105.84C12.1289 135.418 36.3636 159.898 66.1526 160.411C90.3049 160.821 109.968 139.969 109.968 116.385V107.901C109.968 90.9088 96.9196 76.4014 80.8816 75.5609C63.3092 74.6395 48.9199 88.5942 48.9199 105.838V111.904C48.9199 118.591 54.3609 124.032 61.0488 124.032C67.7367 124.032 73.1777 118.591 73.1777 111.904V105.839C73.1777 102.49 75.893 99.7746 79.2421 99.7746C82.5913 99.7746 85.3066 102.49 85.3066 105.839V111.904C85.3066 125.279 74.4245 136.161 61.0488 136.161C47.673 136.161 36.791 125.279 36.791 111.904V105.838C36.791 81.5752 57.0507 62.167 81.5163 63.4486C104.566 64.6566 122.097 85.1051 122.097 107.901V116.384C122.097 132.422 114.897 148.569 101.673 159.684C123.457 156.429 141.83 142.604 151.394 123.612C141.615 121.647 134.225 112.992 134.225 102.642C134.225 70.1336 110.035 42.3617 79.1544 39.4168C42.306 35.9059 12.1289 64.9586 12.1289 99.775V105.84Z" fill="black"/>
</g>
</svg>
