<?xml version="1.0" encoding="UTF-8"?>
<svg width="207px" height="200px" viewBox="0 0 207 200" version="1.1" xmlns="http://www.w3.org/2000/svg" xmlns:xlink="http://www.w3.org/1999/xlink">
    <!-- Generator: Sketch 52.5 (67469) - http://www.bohemiancoding.com/sketch -->
    <title>icon-mask</title>
    <desc>Created with Sketch.</desc>
    <g id="icon-mask" stroke="none" stroke-width="1" fill="none" fill-rule="evenodd">
        <path d="M189.18411,95.961601 C183.735212,85.708005 174.09517,80.3812541 166.967646,77.7184378 C159.308614,74.8567869 150.757006,73.6925043 143.638452,74.4826197 C143.418298,72.9243984 143.134977,71.3773687 142.770546,69.84638 C140.558169,60.5515181 135.680773,52.1374216 128.665009,45.5135824 C118.587276,35.9978759 105.33432,31.3056792 93.08084,32.3483482 C91.7217926,30.6994759 88.1600864,26.7630746 82.8236942,23.6272336 C76.6922822,20.0239633 70.1945702,18.6295101 63.653126,19.4513345 C61.5229802,17.124635 54.5670194,10.3720942 44.9221178,9.53385548 C42.9773642,9.36449169 41.0494304,9.45215799 39.1424282,9.77857489 C38.0487614,8.97987926 35.6188472,7.36047819 32.5198754,6.2368578 C26.6631878,4.11309595 21.252041,4.73310159 16.8706454,8.02898011 C11.7039476,11.9165126 9.86272982,17.7431482 11.6852588,24.4352555 C12.5830674,27.7307604 14.1540458,30.4857198 15.065684,31.9085245 C13.0887854,38.215646 13.4976956,44.2974464 14.5992122,49.1604992 C16.5219128,57.6480857 20.8158452,63.9686367 21.689732,65.1940993 C20.3960954,72.7897284 20.9582534,79.7168557 22.1584466,85.3909144 C24.7928156,97.8484773 30.8203184,106.616596 32.2410386,108.557191 C31.8325022,121.446744 34.7815904,136.505196 44.7961556,152.369433 C65.06525,184.476923 92.4409364,196.001119 117.772445,196 C128.508023,195.999627 138.875058,193.925108 148.178329,190.474041 C151.376352,191.471198 154.531764,191.96959 157.609804,191.969217 C166.409973,191.968844 174.575845,187.936942 181.266799,180.121588 C189.333247,170.699516 194.887923,156.139082 196.505997,140.174123 C198.177147,123.692119 195.576792,107.990532 189.18411,95.961601 Z M16.4843767,21.6576312 C15.2956827,17.393472 16.2896867,14.1645828 19.5233521,11.7870482 C22.2241432,9.80160841 25.5436171,9.46859181 29.3898371,10.7978449 C29.9569631,10.9937163 30.4952465,11.2138518 31,11.4420755 C28.7743987,12.5448631 26.5877351,14.0007116 24.4497445,15.819819 C21.3455115,18.4610943 19.030136,21.2191184 17.3283968,24 C17.0122044,23.2769991 16.7158423,22.487535 16.4843767,21.6576312 Z M177.568528,177.051011 C172.112711,183.414788 162.802876,190.039931 149.439128,185.463404 C145.928167,184.26067 142.850064,182.595491 140.290864,180.513175 C139.085098,179.531742 135.466946,177.421625 134.482494,178.62286 C133.498043,179.82447 135.521157,183.882851 136.726547,184.863535 C138.007837,185.906004 139.39584,186.853362 140.871766,187.713473 C130.818708,190.607971 115.724278,192.941918 99.0013705,188.612153 C79.1146891,183.463092 62.4364943,170.421375 49.43008,149.849095 C33.8396674,125.190069 36.5600616,102.671772 41.58753,88.1243919 C47.4044387,71.2921184 59.7254943,55.3727532 74.5467569,45.5396978 C74.9601815,45.2653496 79.1040644,42.4392197 79.6779764,40.9462997 C79.9166426,40.3254577 77.287678,40.6748411 77.0989403,40.3565618 C76.6903628,39.6675526 75.1640127,39.3944789 73.8751455,39.659603 C72.7045377,39.9004006 71.7617779,40.6405664 71.4239398,40.86469 C55.6103345,51.3567778 42.4648944,68.3403294 36.2594658,86.2955787 C34.9067834,90.2104525 33.708157,94.6585436 32.9299886,99.541745 C30.9415461,95.7612985 28.6697919,90.4781846 27.3749745,84.243967 C23.8839272,67.4304161 28.8148294,51.9045977 42.0309093,38.0971304 C43.7980379,36.2507177 45.5929723,34.57131 47.3657368,33.1060872 C48.5636123,32.1156674 51.012155,28.5628859 50.0190613,27.3691398 C49.7608744,27.0589247 56.4680262,23.0630145 57.7561696,21.6458472 C58.5822188,20.7370595 54.3914509,22.0303958 53.8876155,22.2769949 C52.5980974,22.9081427 45.5057479,27.3691398 43.767603,28.7834374 C42.0294575,30.197735 39.8703752,32.2171435 37.9529483,34.2204507 C30.3929585,42.1187229 25.8742485,50.0810265 23.3676534,57.6183297 C22.0698304,55.0971583 20.6205819,51.6986505 19.7646345,47.8380714 C17.4218641,37.2699705 20.4687806,28.2300005 28.8204653,20.9697905 C33.8385401,16.6074485 39.0309611,14.6198681 44.2598288,15.0598467 C49.7907954,15.5267857 54.3632368,18.6092581 57.1103089,20.9671691 C56.0304173,21.3446145 56.8530737,20.9379623 53.8781501,22.2769949 C50.9032264,23.6160282 50.9032264,25.0789269 50.0190613,26.1492863 C49.2129394,27.1251674 49.7060017,26.6985699 50.0190613,27.3691398 C50.1953474,27.7466425 44.5640382,32.2249737 43.5714705,33.8694672 C42.764015,35.2072663 46.4397124,33.9180248 47.3657368,33.1060872 C49.43008,31.2960737 55.5309675,27.7043265 56.2547373,27.3691398 C64.3246129,23.628385 72.2701178,23.9623942 79.8706877,28.3610577 C82.7169564,30.0078885 85.0014861,31.9501607 86.6066689,33.520229 C84.9462516,33.9661991 83.3181488,34.5222573 81.7396439,35.2048795 C81.4176279,35.3441721 73.8751455,39.0162546 71.4239398,40.86469 C70.2664726,41.7375276 65.2333707,46.4974701 66.7827959,46.0930871 C68.5146384,45.6410955 76.9333145,39.9797922 77.0989403,40.3565618 C77.416795,41.0796237 68.7170733,49.399788 74.5467569,45.5396978 C80.37644,41.6796071 83.6754099,40.4898467 83.9835929,40.3565618 C96.7961227,34.8158255 113.319886,38.5554572 125.101372,49.6631407 C131.354896,55.5588552 135.701139,63.0426112 137.67117,71.3059727 C139.917749,80.7312521 139.087728,90.8208061 135.203652,101.294171 C122.915663,134.429246 120.66495,159.090894 128.513888,174.59387 C129.009496,175.572683 132.523009,182.013596 136.726547,184.863535 C140.930084,187.713473 134.075563,178.82731 134.482494,178.62286 C135.0663,178.32921 140.240747,183.434752 141.574844,183.769647 C141.972531,183.869478 145.443398,184.412996 140.290864,180.552905 C135.138331,176.692815 133.864125,172.692626 133.545489,172.063338 C129.655025,164.379625 128.612333,153.753485 130.445969,140.480358 C131.929035,129.742257 135.308485,117.213161 140.490009,103.240562 C143.403536,95.3842275 144.744194,87.6904042 144.511984,80.2564496 C157.019408,78.806205 177.030462,84.1915443 184.833183,98.8527575 C196.816819,121.368807 193.353953,158.640431 177.568528,177.051011 Z" id="Shape" stroke="#FFFFFF" stroke-width="7" fill="#FFFFFF" fill-rule="nonzero"></path>
    </g>
</svg>